# xmcd CD database file
#
# Track frame offsets:
#	150
#	33855
#	79574
#	127555
#	173722
#	222344
#	263545
#
# Disc length: 4072 seconds
#
# Revision: 0
# Processed by: cddbd v1.5.2PL0 Copyright (c) Steve Scherf et al.
# Submitted via: CDex 1.50
#
DISCID=480fe607
DTITLE=Thomas Clausen - Blue Rain_Thomas Clausen, Tomas Franck, Jesper Lundgaard, Billy Hart
DYEAR=2015
DGENRE=Jazz
TTITLE0=1. Leaves (Thomas Clausen)
TTITLE1=2. Blue Rain (Thomas Clausen)
TTITLE2=3. Punk Monk (Thomas Clausen)
TTITLE3=4. Prelude to a kiss (Duke Ellington)
TTITLE4=5. Prism (Thomas Clausen)
TTITLE5=6. Things you are (Thomas Clausen)
TTITLE6=7. Spring is a promise of fall (Cecilia Heick) (Cecilia Heick,vocals)
EXTD=YEAR: 2015
EXTT0=
EXTT1=
EXTT2=
EXTT3=
EXTT4=
EXTT5=
EXTT6=
PLAYORDER=
